<?xml version="1.0" encoding="utf-8"?>
<!-- Generator: Adobe Illustrator 23.0.1, SVG Export Plug-In . SVG Version: 6.00 Build 0)  -->
<svg version="1.1" id="Layer_1" xmlns="http://www.w3.org/2000/svg" xmlns:xlink="http://www.w3.org/1999/xlink" x="0px" y="0px"
	 viewBox="0 0 595.3 216" style="enable-background:new 0 0 595.3 216;" xml:space="preserve">
<style type="text/css">
	.st0{fill:#2AB956;}
	.st1{fill:#74DD66;}
	.st2{clip-path:url(#Mask_1_);fill:none;stroke:#000000;stroke-width:20;stroke-miterlimit:10;}
</style>
<polygon id="x-2" class="st0" points="255.6,146.9 209.3,147.6 194.1,131.9 181,147.1 168.6,147 193.7,120 211.2,137.6 232,137.4 
	204.2,109.6 292,19.8 307,19.8 219.3,108.6 "/>
<path id="x-1" class="st1" d="M134.2,71.9c0,0,45.9,0,47.2,0.1c4.1,4.1,8.4,8.3,12.9,12.7c4.9-4.3,9.6-8.5,14.3-12.7
	c3.8,0,7.6,0,12.5,0c-9.3,9.3-17.9,17.9-26.7,26.8c-3.9-3.8-17.8-17.9-17.8-17.9s-4.6,0-10.5-0.1c-2.3,0-11-0.1-11-0.1
	s23.3,24.1,28.1,28.9c-1.5,1.6-86.1,86.8-87.2,88.2c-4.7,0-9.3,0-14,0c1.2-1.3,85.8-86.5,87.1-87.9
	C166.6,106.7,134.2,71.9,134.2,71.9z"/>
<g>
	<defs>
		<path id="Mask" d="M298.5,71.9c-9.9-0.9-19.3-0.9-28.9-0.6c-9.6,0.3-14.1,7.9-13.9,15.7c0.4,18.2,0.1,59.6,0.1,59.6l15.3-0.1
			l1-20.4c0,0,3.7,0,5.3,0c5.8,0,11.7,0.3,17.5-0.2c10-0.8,18.4-4.9,23.3-14.1C327,94.9,317.5,73.6,298.5,71.9z M302.9,107.1
			c-2.6,4.3-7.1,5.2-11.8,5.4c-3.5,0.2-7,0-10.8,0c-2.7,4.2-8.3,12-8.3,12l0.4-39.4c0,0,14.7-0.4,19.7-0.2c4.9,0.2,9.4,1.9,11.5,6.7
			C305.8,96.8,305.9,102.2,302.9,107.1z M548,131.8c-6.8,11.8-17.6,16-30.6,16.1c-7.2,0-14.3,0.2-21.3-2c-4.4-1.4-8.9-2.8-12.5-6.9
			c4.3-3.4,8.4-6.6,12.7-10c1.2,0.8,2.2,1.7,3.4,2.1c2.4,1,4.9,2.3,7.4,2.5c4.8,0.4,9.7,0.4,14.5,0c5.1-0.4,9.3-2.3,11.1-7.4
			c1.1-4.1-2.7-5.3-5.4-6.3c-4.2-1.5-8.6-2.7-12.8-4c-5.4-1.7-10.9-3.2-16.1-5.2c-2.6-1-5.1-2.5-7.3-4.3c-8.2-6.6-9-17.1-2.1-25.1
			c4.4-5.1,10.1-8.3,16.7-9.4c9.6-1.6,19.2-1.7,28.7,0.8c5.6,1.5,9.4,3.5,13,7.2c-4.3,3.4-8.5,6.7-12.9,10.1c-1.1-0.8-6-4.3-10.8-5
			c-3.9-0.5-8-0.3-12-0.1c-6.4,0.4-12.9,2.4-11.3,8.6c1.2,3.6,4.5,4.7,7.6,5.7c3.8,1.3,7.7,2.1,11.5,3.2c3.8,1.1,7.7,2.2,11.5,3.5
			C538.2,108.7,554.1,116.7,548,131.8z M48,71.8l15.2,0.4l0.5,75.3H48V71.8z M359.2,126c-3.6,0-11.3,0-11.3,0l8.2-13.4
			c0,0,6.2,0,9.3,0c12.4,0,17-7.6,14.5-18.7c-1.3-5.6-5.3-8.2-10.4-8.6c-7.2-0.5-14.6-0.1-22.4-0.1c0,20.8,0,62.5,0,62.5l-15.5,0.3
			c0,0-0.7-42.6-0.7-62.1c0-7.2,4.7-12.8,11.7-14.2c2.3-0.5,22.3-0.7,29.8,0.2c10.6,1.1,20.6,7.5,22.9,18.6
			c3,13.9,0.3,26.8-15.3,33.4c-0.6,0.2-2.1,1-2.1,1l20.2,22.8c0,0-16.4,0.4-19.4,0.4C372.2,140.6,365.9,133.5,359.2,126z
			 M475.1,109.9c0,3.2-0.1,6.3,0,9.5c0.4,13.6-10.1,27.6-26.7,29.3c-6.7,0.7-13.7,0.4-20.3-0.8c-13.6-2.6-22.8-14.5-23.1-28.2
			c-0.1-6.8-0.1-13.7,0-20.5c0.3-13.9,10.7-26,24.3-28.4c7.1-1.3,14.2-1.2,21.4,0c14.1,2.4,24.3,14.4,24.4,28.7
			C475.2,102.9,475.1,106.4,475.1,109.9z M459,110C459,110,459,110,459,110c0-3.7,0.1-7.3,0-11c-0.2-9.1-6-14.9-15.1-15
			c-2.5,0-5,0-7.5,0c-8.6,0.1-14.6,5.4-15.1,14.1c-0.4,7.6-0.5,15.3,0,23c0.7,9.3,7.7,14.6,15.1,13.9c2.6-0.3,5.3,0,8,0
			c8.4-0.1,14.3-5.9,14.5-14.4C459.1,116.9,459,113.4,459,110z M132.6,84.8l-21.3,0.4l-0.1,62.4l-15.5,0.3c0,0-0.7-41.3-0.6-60.4
			c0-8.4,4.8-13.6,13.1-15c1.5-0.2,3-0.5,4.5-0.5c6.7,0,20.1-0.1,20.1-0.1L132.6,84.8z M90.5,84.7c-5.5,0-10.2-0.2-15.4-0.2
			c0-4.5,0-12.6,0-12.6l23.1,0.3C98.3,72.1,93.1,80.5,90.5,84.7z"/>
	</defs>
	<clipPath id="Mask_1_">
		<use xlink:href="#Mask"  style="overflow:visible;"/>
	</clipPath>
	<line id="path-1" class="st2" x1="55.8" y1="59" x2="55.8" y2="157.3"/>
	<polyline id="path-2" class="st2" points="102.3,154.6 102.8,86 113.9,75.9 137.8,75.9 140.1,78.3 69.7,78.3 	"/>
	<path id="path-3" class="st2" d="M262.2,153.4V87.8c0,0-0.7-9.6,14.4-9.6s21.4,0,21.4,0s16.7,0.9,16.7,16.7s-9,23.8-16.7,23.8
		s-25.9,0-25.9,0"/>
	<path id="path-4" class="st2" d="M339.9,154.8V85c0,0,1.4-5.8,10.1-5.8s25.2,0,25.2,0s12.2,3.4,12.2,21.6S368,120.2,368,120.2
		h-24.5l0.7,4.4h24.5l29.5,34.5"/>
	<path id="path-5_1_" class="st2" d="M414.1,118.4c0-9.2,0-23.4,0-28.8c0-8.3,14.8-11.5,14.8-11.5s14.8,0,24.8,0
		c10.1,0,13.3,16.6,13.3,16.6s0,24.5,0,31.9s-17.6,14.6-17.6,14.6s-9.7,0-18.4,0s-16.9-14.4-16.9-14.4V108"/>
	<path id="path-6" class="st2" d="M544.4,85c0,0-8.6-7.6-30.2-7.6c-21.7,0-22.7,14.4-22.7,14.4s6.1,11.9,26.5,19.8
		c20.3,7.9,22.9,5.8,23.2,11.5c0.4,5.8-10.8,18.4-24.7,18.4c-13.8,0-27.9-4.3-30.4-9.4"/>
</g>
</svg>
